<svg width="50" height="20" viewBox="0 0 50 20" fill="none" xmlns="http://www.w3.org/2000/svg">
<rect width="50" height="20" fill="#093446"/>
<path d="M2.05682 15V6.27273H3.11364V14.0625H7.17045V15H2.05682ZM15.8306 10.6364C15.8306 11.5568 15.6644 12.3523 15.332 13.0227C14.9996 13.6932 14.5437 14.2102 13.9641 14.5739C13.3846 14.9375 12.7227 15.1193 11.9783 15.1193C11.234 15.1193 10.5721 14.9375 9.99254 14.5739C9.413 14.2102 8.95703 13.6932 8.62464 13.0227C8.29226 12.3523 8.12607 11.5568 8.12607 10.6364C8.12607 9.71591 8.29226 8.92045 8.62464 8.25C8.95703 7.57955 9.413 7.0625 9.99254 6.69886C10.5721 6.33523 11.234 6.15341 11.9783 6.15341C12.7227 6.15341 13.3846 6.33523 13.9641 6.69886C14.5437 7.0625 14.9996 7.57955 15.332 8.25C15.6644 8.92045 15.8306 9.71591 15.8306 10.6364ZM14.8079 10.6364C14.8079 9.88068 14.6815 9.2429 14.4286 8.72301C14.1786 8.20312 13.8391 7.80966 13.4102 7.54261C12.984 7.27557 12.5067 7.14205 11.9783 7.14205C11.4499 7.14205 10.9712 7.27557 10.5423 7.54261C10.1161 7.80966 9.77663 8.20312 9.52379 8.72301C9.27379 9.2429 9.14879 9.88068 9.14879 10.6364C9.14879 11.392 9.27379 12.0298 9.52379 12.5497C9.77663 13.0696 10.1161 13.4631 10.5423 13.7301C10.9712 13.9972 11.4499 14.1307 11.9783 14.1307C12.5067 14.1307 12.984 13.9972 13.4102 13.7301C13.8391 13.4631 14.1786 13.0696 14.4286 12.5497C14.6815 12.0298 14.8079 11.392 14.8079 10.6364ZM23.5735 9C23.4798 8.71307 23.3562 8.45597 23.2028 8.22869C23.0522 7.99858 22.8718 7.80256 22.6616 7.64062C22.4542 7.47869 22.2184 7.35511 21.9542 7.26989C21.69 7.18466 21.4002 7.14205 21.0849 7.14205C20.5678 7.14205 20.0977 7.27557 19.6744 7.54261C19.2511 7.80966 18.9144 8.20312 18.6644 8.72301C18.4144 9.2429 18.2894 9.88068 18.2894 10.6364C18.2894 11.392 18.4158 12.0298 18.6687 12.5497C18.9215 13.0696 19.2638 13.4631 19.6957 13.7301C20.1275 13.9972 20.6133 14.1307 21.1531 14.1307C21.6531 14.1307 22.0934 14.0241 22.4741 13.8111C22.8576 13.5952 23.1559 13.2912 23.369 12.8991C23.5849 12.5043 23.6928 12.0398 23.6928 11.5057L24.0167 11.5739H21.3917V10.6364H24.7156V11.5739C24.7156 12.2926 24.5621 12.9176 24.2553 13.4489C23.9513 13.9801 23.5309 14.392 22.994 14.6847C22.4599 14.9744 21.8462 15.1193 21.1531 15.1193C20.3803 15.1193 19.7013 14.9375 19.1161 14.5739C18.5337 14.2102 18.0792 13.6932 17.7525 13.0227C17.4286 12.3523 17.2667 11.5568 17.2667 10.6364C17.2667 9.94602 17.359 9.32528 17.5437 8.77415C17.7312 8.22017 17.9954 7.74858 18.3363 7.35938C18.6772 6.97017 19.0806 6.67188 19.5465 6.46449C20.0124 6.2571 20.5252 6.15341 21.0849 6.15341C21.5451 6.15341 21.9741 6.22301 22.3718 6.36222C22.7724 6.49858 23.1289 6.69318 23.4414 6.94602C23.7567 7.19602 24.0195 7.49574 24.2298 7.84517C24.44 8.19176 24.5849 8.5767 24.6644 9H23.5735ZM33.8892 10.6364C33.8892 11.5568 33.723 12.3523 33.3906 13.0227C33.0582 13.6932 32.6023 14.2102 32.0227 14.5739C31.4432 14.9375 30.7813 15.1193 30.0369 15.1193C29.2926 15.1193 28.6307 14.9375 28.0511 14.5739C27.4716 14.2102 27.0156 13.6932 26.6832 13.0227C26.3509 12.3523 26.1847 11.5568 26.1847 10.6364C26.1847 9.71591 26.3509 8.92045 26.6832 8.25C27.0156 7.57955 27.4716 7.0625 28.0511 6.69886C28.6307 6.33523 29.2926 6.15341 30.0369 6.15341C30.7813 6.15341 31.4432 6.33523 32.0227 6.69886C32.6023 7.0625 33.0582 7.57955 33.3906 8.25C33.723 8.92045 33.8892 9.71591 33.8892 10.6364ZM32.8665 10.6364C32.8665 9.88068 32.7401 9.2429 32.4872 8.72301C32.2372 8.20312 31.8977 7.80966 31.4688 7.54261C31.0426 7.27557 30.5653 7.14205 30.0369 7.14205C29.5085 7.14205 29.0298 7.27557 28.6009 7.54261C28.1747 7.80966 27.8352 8.20312 27.5824 8.72301C27.3324 9.2429 27.2074 9.88068 27.2074 10.6364C27.2074 11.392 27.3324 12.0298 27.5824 12.5497C27.8352 13.0696 28.1747 13.4631 28.6009 13.7301C29.0298 13.9972 29.5085 14.1307 30.0369 14.1307C30.5653 14.1307 31.0426 13.9972 31.4688 13.7301C31.8977 13.4631 32.2372 13.0696 32.4872 12.5497C32.7401 12.0298 32.8665 11.392 32.8665 10.6364Z" fill="white"/>
<path d="M37 4.5C37 3.11929 38.1193 2 39.5 2H42V7H39.5C38.1193 7 37 5.88071 37 4.5V4.5Z" fill="#F35D31"/>
<path d="M47 4.5C47 3.11929 45.8807 2 44.5 2H42V7H44.5C45.8807 7 47 5.88071 47 4.5V4.5Z" fill="#FF6E5E"/>
<path d="M37 9.5C37 8.11929 38.1193 7 39.5 7H42V12H39.5C38.1193 12 37 10.8807 37 9.5V9.5Z" fill="#A259FF"/>
<path d="M37 14.5C37 13.1193 38.1193 12 39.5 12H42V14.5C42 15.8807 40.8807 17 39.5 17V17C38.1193 17 37 15.8807 37 14.5V14.5Z" fill="#0ACF83"/>
<rect x="42" y="7" width="5" height="5" rx="2.5" fill="#1ABCFE"/>
</svg>
