<?xml version="1.0" encoding="UTF-8" ?>
<!DOCTYPE svg PUBLIC "-//W3C//DTD SVG 1.1//EN" "http://www.w3.org/Graphics/SVG/1.1/DTD/svg11.dtd">
<svg width="512pt" height="512pt" viewBox="0 0 512 512" version="1.1" xmlns="http://www.w3.org/2000/svg">
<g id="#000000ff">
<path fill="#000000" opacity="1.00" d=" M 189.62 0.00 L 196.03 0.00 C 211.29 0.99 226.30 6.99 237.56 17.43 C 246.46 25.53 252.91 36.15 256.34 47.66 C 321.24 47.67 386.13 47.66 451.03 47.67 C 459.17 47.55 467.36 50.10 473.78 55.15 C 482.33 61.66 487.64 72.19 487.74 82.95 C 487.75 90.64 487.92 98.34 487.67 106.03 C 487.55 109.93 483.88 113.16 480.03 112.99 C 476.26 113.00 472.77 109.80 472.68 105.99 C 472.32 98.05 472.82 90.10 472.49 82.16 C 472.12 74.38 466.82 67.18 459.59 64.35 C 454.99 62.42 449.89 62.91 445.02 62.86 C 382.93 62.89 320.84 62.85 258.75 62.88 C 259.75 70.87 262.23 78.70 266.42 85.60 C 271.46 94.19 279.26 100.57 286.08 107.66 C 289.89 103.63 294.30 99.84 299.84 98.53 C 309.63 95.76 320.85 100.07 326.21 108.73 C 329.88 114.20 330.58 121.07 329.42 127.44 C 335.94 129.48 341.89 133.84 344.85 140.11 C 346.87 143.93 347.27 148.30 347.38 152.55 C 355.67 154.04 363.39 159.41 366.70 167.30 C 368.95 172.34 368.83 178.03 367.63 183.32 C 374.08 185.51 379.81 190.06 382.61 196.37 C 384.27 199.56 384.27 203.23 385.25 206.62 C 392.72 215.43 403.30 222.15 407.38 233.44 C 413.12 247.82 408.12 265.48 395.73 274.75 C 385.50 282.81 370.79 284.52 358.97 279.08 C 349.92 275.09 343.95 266.86 336.88 260.30 C 325.97 267.66 313.59 272.24 301.60 277.44 C 292.55 280.78 287.17 289.30 280.19 295.45 C 284.32 303.31 284.14 313.47 278.60 320.61 C 273.34 327.85 263.77 330.99 255.11 329.19 C 250.10 334.10 245.17 339.09 240.22 344.05 C 317.67 344.08 395.12 344.07 472.58 344.06 C 472.59 276.70 472.56 209.35 472.59 142.00 C 472.15 137.70 475.65 133.47 480.06 133.54 C 484.59 133.32 488.21 137.65 487.78 142.04 C 487.77 220.05 487.78 298.05 487.77 376.06 C 487.87 384.09 485.34 392.16 480.40 398.54 C 473.81 407.31 463.01 412.70 452.02 412.65 C 402.15 412.69 352.27 412.65 302.39 412.67 C 305.62 425.14 308.84 437.60 312.10 450.06 C 319.05 450.17 326.01 449.84 332.96 450.27 C 348.45 451.50 362.72 461.67 369.19 475.76 C 372.22 482.34 373.85 489.70 373.24 496.96 C 372.36 504.90 365.36 511.32 357.47 512.00 L 154.61 512.00 C 146.36 511.35 139.07 504.33 138.66 495.96 C 138.31 487.77 140.46 479.52 144.53 472.42 C 151.73 459.78 165.43 451.08 179.99 450.20 C 186.62 449.89 193.26 450.15 199.90 450.06 C 203.16 437.60 206.38 425.14 209.61 412.67 C 159.72 412.65 109.83 412.69 59.95 412.65 C 50.38 412.65 40.91 408.61 34.30 401.68 C 27.68 394.94 24.05 385.49 24.23 376.06 C 24.22 279.02 24.23 181.99 24.22 84.95 C 24.21 80.93 24.60 76.88 25.81 73.04 C 30.01 58.67 44.02 47.89 59.03 47.72 C 82.75 47.56 106.47 47.76 130.19 47.63 C 133.48 42.25 140.07 38.97 146.32 40.73 C 150.49 41.55 153.04 45.15 156.26 47.53 C 168.92 47.88 181.62 47.57 194.29 47.66 C 186.82 40.12 179.25 32.69 171.82 25.12 C 166.57 20.00 166.49 10.81 171.64 5.60 C 176.20 0.66 183.44 0.73 189.62 0.00 M 184.09 15.91 C 193.05 24.99 202.16 33.91 211.10 43.00 C 218.41 50.40 221.03 61.92 217.76 71.77 C 214.69 81.52 206.03 89.24 195.98 91.11 C 186.65 93.05 176.55 89.86 169.92 83.05 C 161.05 74.26 152.29 65.36 143.40 56.59 C 141.35 68.66 143.77 81.40 150.16 91.84 C 156.93 103.11 168.30 111.49 181.07 114.62 C 187.31 116.24 193.85 115.95 200.10 117.50 C 212.36 120.34 223.81 126.49 233.02 135.05 C 237.04 138.67 240.49 142.91 244.70 146.31 C 246.25 147.32 247.74 145.83 248.81 144.82 C 257.63 136.00 266.51 127.24 275.33 118.42 C 271.23 114.26 267.02 110.20 262.98 105.98 C 254.26 96.85 248.02 85.36 245.16 73.06 C 243.26 65.15 243.44 56.84 240.73 49.12 C 233.39 26.11 207.67 11.47 184.09 15.91 M 39.45 82.95 C 39.38 169.99 39.44 257.02 39.42 344.05 C 46.98 344.08 54.54 344.06 62.10 344.07 C 78.10 328.11 94.03 312.08 110.05 296.14 C 112.81 293.01 118.12 292.84 120.99 295.90 C 124.03 298.77 123.89 304.03 120.80 306.81 C 108.45 319.26 95.99 331.61 83.61 344.06 C 128.65 344.07 173.68 344.07 218.72 344.06 C 226.50 336.28 234.29 328.50 242.05 320.70 C 219.54 298.18 197.02 275.68 174.51 253.16 C 165.06 262.52 155.72 272.00 146.26 281.34 C 143.49 284.37 138.31 284.45 135.46 281.49 C 132.39 278.61 132.52 273.29 135.67 270.51 C 145.28 260.81 155.02 251.22 164.62 241.51 C 162.14 235.73 161.72 228.99 164.21 223.14 C 167.35 215.18 175.35 209.42 183.92 209.07 C 189.36 208.65 194.69 210.57 199.12 213.65 C 204.27 209.09 209.08 203.23 209.15 195.98 C 209.08 186.95 206.45 178.03 207.22 168.96 C 207.93 159.14 211.80 149.76 217.44 141.77 C 211.26 137.38 204.28 134.09 196.88 132.35 C 191.31 131.00 185.50 131.19 179.91 129.92 C 163.03 126.48 147.72 116.05 138.36 101.60 C 130.88 90.20 127.11 76.49 127.51 62.88 C 105.01 62.86 82.52 62.85 60.03 62.89 C 49.23 62.62 39.45 72.14 39.45 82.95 M 171.23 62.87 C 177.05 67.84 181.52 76.13 190.02 76.44 C 197.52 76.87 203.94 70.23 204.07 62.88 C 193.12 62.85 182.18 62.86 171.23 62.87 M 299.65 115.66 C 286.06 129.10 272.64 142.73 259.00 156.12 C 254.58 160.78 247.69 163.04 241.44 161.27 C 236.12 160.05 232.38 155.86 228.71 152.15 C 226.41 155.87 224.42 159.82 223.36 164.09 C 219.77 177.11 226.84 190.42 223.35 203.47 C 221.51 211.80 216.10 218.69 209.94 224.33 C 229.91 244.33 249.89 264.31 269.89 284.28 C 276.72 278.02 282.39 270.20 290.70 265.77 C 300.89 260.79 311.74 257.20 321.71 251.75 C 338.13 242.86 350.59 228.66 363.85 215.84 C 365.85 213.77 368.34 211.87 369.21 208.99 C 370.43 205.24 368.72 200.79 365.28 198.85 C 361.94 196.80 357.67 198.69 354.29 196.75 C 350.43 194.80 348.13 190.12 349.15 185.88 C 349.84 182.61 353.16 180.47 353.32 177.02 C 353.82 172.60 350.10 168.81 346.01 167.89 C 342.21 166.77 338.73 170.11 334.93 169.08 C 330.92 168.24 328.04 163.99 328.78 159.95 C 329.41 156.79 332.15 154.35 332.13 151.00 C 332.41 146.47 328.60 142.28 324.10 142.02 C 320.63 141.71 317.57 144.51 314.07 143.66 C 309.56 142.79 306.58 137.55 308.20 133.24 C 309.50 129.77 313.38 127.95 314.33 124.29 C 315.71 120.18 313.60 115.26 309.54 113.63 C 306.22 112.16 302.14 113.04 299.65 115.66 M 349.17 251.09 C 354.57 255.92 358.85 262.35 365.62 265.39 C 373.99 269.11 384.61 266.39 390.13 259.08 C 395.42 252.50 396.00 242.64 391.53 235.47 C 388.09 230.39 383.17 226.56 379.01 222.09 C 369.17 231.87 359.43 241.75 349.17 251.09 M 183.32 224.46 C 177.86 225.63 175.75 233.28 179.91 237.04 C 204.69 261.93 229.59 286.70 254.39 311.57 C 255.89 313.10 257.78 314.43 260.02 314.47 C 264.15 314.82 268.01 311.19 267.94 307.05 C 268.07 304.64 266.70 302.53 265.04 300.92 C 240.37 276.27 215.71 251.60 191.05 226.93 C 189.12 224.84 186.13 223.65 183.32 224.46 M 39.42 359.27 C 39.49 365.73 39.26 372.19 39.52 378.65 C 40.16 388.98 49.68 397.66 60.01 397.46 C 190.67 397.47 321.34 397.47 452.00 397.46 C 462.36 397.68 471.83 388.92 472.47 378.59 C 472.73 372.15 472.50 365.71 472.58 359.27 C 328.19 359.26 183.80 359.26 39.42 359.27 M 225.31 412.68 C 222.08 425.14 218.83 437.60 215.61 450.06 C 242.54 450.07 269.46 450.07 296.39 450.06 C 293.17 437.59 289.92 425.14 286.69 412.68 C 266.23 412.66 245.77 412.66 225.31 412.68 M 180.31 465.39 C 165.57 466.48 153.16 480.25 153.83 495.05 C 154.03 496.60 155.73 496.86 156.99 496.80 C 223.01 496.80 289.03 496.80 355.04 496.80 C 356.29 496.87 357.96 496.57 358.16 495.04 C 358.53 484.41 352.35 473.96 343.02 468.91 C 337.89 465.95 331.88 465.02 326.03 465.19 C 277.46 465.34 228.87 464.94 180.31 465.39 Z" />
</g>
</svg>
