<?xml version="1.0" encoding="UTF-8" ?>
<!DOCTYPE svg PUBLIC "-//W3C//DTD SVG 1.1//EN" "http://www.w3.org/Graphics/SVG/1.1/DTD/svg11.dtd">
<svg width="200pt" height="200pt" viewBox="0 0 200 200" version="1.1" xmlns="http://www.w3.org/2000/svg">
<g id="#000000ff">
<path fill="#000000" opacity="1.00" d=" M 75.92 13.00 C 79.42 10.59 83.88 10.18 88.02 10.00 C 92.29 10.12 96.92 10.53 100.54 13.02 C 100.43 22.62 97.30 32.02 97.92 41.66 C 101.63 33.11 101.71 23.54 104.59 14.72 C 111.75 19.58 116.88 27.32 117.99 35.96 C 117.86 38.80 120.72 39.87 121.92 42.00 C 122.35 44.87 122.45 47.89 121.76 50.74 C 120.09 53.16 116.53 51.89 114.26 53.40 C 111.53 55.30 108.93 57.66 105.54 58.25 C 97.13 59.97 88.47 60.04 79.94 59.49 C 75.47 59.09 70.81 58.82 66.83 56.54 C 66.84 58.40 66.81 60.27 66.83 62.13 C 65.74 60.40 64.99 58.23 63.00 57.32 C 60.62 61.08 62.03 65.80 62.66 69.89 C 62.68 72.80 65.67 73.61 67.35 75.38 C 68.52 79.25 68.58 83.57 70.99 86.98 C 74.77 92.58 80.97 97.21 87.99 96.99 C 95.32 97.38 101.79 92.48 105.65 86.61 C 107.72 83.62 107.92 79.89 108.81 76.46 C 109.31 73.83 113.08 73.60 113.54 70.93 C 114.38 66.95 115.38 62.64 114.25 58.65 C 112.45 55.50 110.71 60.85 109.67 62.03 C 109.77 60.26 109.85 58.48 109.92 56.71 C 112.33 55.92 116.26 54.21 117.49 57.55 C 118.98 62.25 117.97 67.35 116.96 72.06 C 116.50 74.72 114.22 76.34 112.71 78.37 C 111.51 81.34 111.16 84.66 109.34 87.37 C 104.94 94.22 97.51 99.79 89.11 99.84 C 76.74 100.57 65.51 90.14 63.89 78.13 C 58.32 74.35 58.40 66.89 58.27 60.89 C 58.03 57.79 60.34 54.17 63.85 56.10 C 64.41 55.78 64.96 55.44 65.51 55.10 C 63.47 54.02 61.43 52.77 59.08 52.53 C 57.39 52.17 54.72 52.20 54.48 49.94 C 54.18 47.15 53.98 44.23 54.69 41.49 C 56.24 39.83 58.42 38.47 58.48 35.93 C 59.63 27.31 64.67 19.37 72.07 14.77 C 74.67 23.66 74.83 33.25 78.65 41.75 C 79.06 32.08 76.11 22.64 75.92 13.00 Z" />
<path fill="#000000" opacity="1.00" d=" M 57.14 110.18 C 61.91 108.16 64.54 103.32 68.89 100.71 C 70.34 103.59 69.61 107.08 70.33 110.19 C 72.40 122.81 75.80 135.19 79.89 147.29 C 82.12 153.77 84.75 160.14 88.22 166.05 C 90.91 161.63 93.00 156.90 94.89 152.09 C 95.25 159.19 97.26 166.07 100.42 172.41 C 76.26 172.67 52.10 172.49 27.94 172.51 C 24.89 172.91 22.92 169.78 23.21 167.03 C 23.73 155.29 24.62 143.57 25.27 131.85 C 25.39 127.94 27.10 123.65 30.89 121.98 C 39.60 117.96 48.41 114.16 57.14 110.18 Z" />
<path fill="#000000" opacity="1.00" d=" M 107.10 100.41 C 112.10 103.82 115.59 109.25 121.55 111.24 C 114.19 114.67 107.67 119.77 102.80 126.29 C 104.87 117.78 106.66 109.18 107.10 100.41 Z" />
<path fill="#000000" opacity="1.00" d=" M 80.68 110.96 C 80.72 108.78 82.35 107.18 83.54 105.53 C 85.04 106.40 86.49 107.36 88.09 108.05 C 89.89 107.42 91.52 106.39 93.22 105.52 C 94.37 107.53 96.10 109.55 95.74 112.02 C 95.27 115.13 93.47 117.81 92.20 120.62 C 93.85 126.65 95.83 132.70 96.25 138.97 C 94.39 147.73 91.56 156.32 88.21 164.63 C 85.28 157.58 83.12 150.25 81.02 142.92 C 79.09 137.68 81.34 132.23 82.47 127.07 C 82.95 124.33 84.84 121.37 83.29 118.68 C 82.26 116.18 80.55 113.77 80.68 110.96 Z" />
<path fill="#000000" opacity="1.00" d=" M 128.36 113.55 C 137.35 111.25 147.16 112.26 155.43 116.47 C 164.56 121.02 171.75 129.32 174.89 139.03 C 178.20 148.93 177.25 160.16 172.31 169.35 C 167.67 178.16 159.52 185.03 150.04 188.08 C 140.58 191.20 129.92 190.47 120.98 186.07 C 112.73 182.06 106.00 175.02 102.37 166.59 C 97.97 156.54 98.14 144.59 102.85 134.68 C 107.66 124.31 117.27 116.33 128.36 113.55 M 120.42 157.18 C 125.57 155.83 130.72 154.45 135.88 153.10 C 130.49 162.36 125.01 171.56 119.65 180.83 C 132.04 167.66 144.27 154.34 156.58 141.10 C 151.45 142.44 146.33 143.81 141.20 145.16 C 145.55 137.23 149.99 129.34 154.31 121.40 C 142.95 133.27 131.70 145.24 120.42 157.18 Z" />
</g>
</svg>
