<?xml version="1.0" encoding="UTF-8" ?>
<!DOCTYPE svg PUBLIC "-//W3C//DTD SVG 1.1//EN" "http://www.w3.org/Graphics/SVG/1.1/DTD/svg11.dtd">
<svg width="216pt" height="233pt" viewBox="0 0 216 233" version="1.1" xmlns="http://www.w3.org/2000/svg">
<g id="#ffffffff">
</g>
<g id="#05c1ffff">
<path fill="#05c1ff" opacity="1.00" d=" M 95.55 7.89 C 116.15 5.35 137.54 9.20 155.80 19.13 C 176.02 29.94 192.32 47.87 201.10 69.06 C 209.97 90.07 211.23 114.14 204.88 136.03 C 198.74 157.31 185.28 176.37 167.34 189.33 C 149.21 202.64 126.52 209.52 104.05 208.52 C 81.14 207.79 58.66 198.75 41.49 183.60 C 21.98 166.63 9.37 141.89 7.49 116.06 C 5.57 93.87 11.39 71.12 23.68 52.54 C 39.58 28.10 66.58 11.29 95.55 7.89 M 97.50 17.70 C 70.37 20.65 45.21 36.75 30.85 59.91 C 19.36 78.21 14.75 100.72 18.25 122.06 C 21.13 140.95 30.36 158.73 43.90 172.17 C 58.91 187.17 79.34 196.72 100.53 198.30 C 121.47 200.17 142.94 194.29 160.13 182.20 C 179.21 168.90 192.92 148.03 197.21 125.13 C 200.80 107.02 198.58 87.83 191.04 70.98 C 182.24 51.16 166.06 34.75 146.42 25.60 C 131.26 18.50 114.12 15.78 97.50 17.70 Z" />
<path fill="#05c1ff" opacity="1.00" d=" M 100.30 39.28 C 105.11 36.02 111.80 36.18 116.53 39.50 C 134.41 51.57 152.26 63.69 170.15 75.75 C 171.90 77.02 173.95 78.59 174.09 80.94 C 174.50 83.75 171.55 85.74 169.05 85.95 C 164.87 86.33 160.67 86.04 156.48 86.10 C 156.51 101.04 156.51 115.99 156.50 130.94 C 156.81 133.08 155.48 135.59 153.02 135.24 C 144.01 135.42 134.98 135.21 125.97 135.29 C 122.49 135.03 120.26 138.38 117.04 139.04 C 113.14 139.45 109.25 138.47 105.62 137.12 C 106.06 135.86 105.44 133.70 107.00 133.13 C 109.89 132.83 112.81 132.98 115.71 132.85 C 115.73 130.35 115.68 127.86 115.64 125.36 C 112.51 125.12 109.26 125.62 106.22 124.79 C 105.59 123.54 105.41 121.58 106.93 120.91 C 109.73 119.54 112.96 119.33 116.04 119.34 C 119.77 119.31 122.17 123.31 125.94 123.00 C 133.95 123.02 141.96 122.99 149.98 123.00 C 149.98 110.70 149.98 98.40 149.98 86.10 C 116.68 86.13 83.38 86.08 50.08 86.12 C 47.44 86.08 43.77 85.80 42.73 82.88 C 41.53 80.11 43.79 77.51 45.95 76.06 C 53.39 71.00 60.83 65.92 68.33 60.95 C 68.45 56.68 68.16 52.40 68.47 48.14 C 68.72 45.42 71.25 43.26 73.91 43.02 C 77.07 42.84 80.34 42.62 83.42 43.45 C 85.57 44.02 86.46 46.21 87.54 47.92 C 91.82 45.08 96.01 42.10 100.30 39.28 M 101.49 46.30 C 94.68 51.09 87.63 55.53 80.87 60.39 C 80.86 56.75 80.86 53.11 80.86 49.46 C 78.91 49.65 76.67 49.03 74.91 49.92 C 74.59 54.77 74.92 59.64 74.74 64.50 C 67.38 69.51 59.84 74.25 52.69 79.55 C 89.81 79.59 126.94 79.54 164.06 79.57 C 147.48 68.26 130.81 57.10 114.22 45.80 C 110.52 42.43 105.05 43.10 101.49 46.30 M 106.65 122.30 C 109.26 125.00 113.68 122.61 116.97 123.88 C 118.16 127.03 118.09 130.93 117.07 134.09 C 113.93 135.92 109.81 134.03 106.50 135.74 C 110.19 136.15 114.01 136.48 117.67 135.71 C 119.74 134.17 119.10 131.23 119.30 129.00 C 119.12 126.69 119.73 123.04 116.85 122.23 C 113.46 121.81 110.04 122.05 106.65 122.30 M 125.08 125.89 L 125.14 127.24 C 132.43 127.26 139.71 127.27 147.00 127.21 L 147.00 125.90 C 139.69 125.85 132.38 125.86 125.08 125.89 Z" />
<path fill="#05c1ff" opacity="1.00" d=" M 72.51 102.44 C 74.17 99.12 75.38 95.55 77.52 92.48 C 82.62 104.38 89.06 115.63 94.72 127.26 C 99.39 137.16 104.19 147.76 103.17 158.98 C 102.61 166.39 97.51 172.97 90.74 175.85 C 82.63 179.34 73.05 179.49 64.85 176.24 C 58.90 173.93 53.85 168.99 52.18 162.73 C 50.17 155.31 51.85 147.48 54.31 140.37 C 59.11 127.16 66.41 115.07 72.51 102.44 M 57.00 157.12 C 57.18 161.34 60.35 165.48 64.70 165.92 C 61.16 159.04 60.75 151.24 60.32 143.68 C 57.51 147.51 56.69 152.46 57.00 157.12 Z" />
</g>
<g id="#111224ff">
</g>
</svg>
